HIERARCHY
ROOT Hips
{
  OFFSET -1.8071 51.7326 -5.35696
  CHANNELS 6 Xposition Yposition Zposition Zrotation Xrotation Yrotation
  JOINT LeftUpLeg
  {
    OFFSET 8.91 -6.27 -2.145
    CHANNELS 3 Zrotation Xrotation Yrotation
    JOINT LeftUpLegRoll
    {
      OFFSET 0 -22.7323 0
      CHANNELS 3 Zrotation Xrotation Yrotation
      JOINT LeftLeg
      {
        OFFSET 0 -22.1464 0
        CHANNELS 3 Zrotation Xrotation Yrotation
        JOINT LeftLegRoll
        {
          OFFSET 0 -22.0919 0
          CHANNELS 3 Zrotation Xrotation Yrotation
          JOINT LeftFoot
          {
            OFFSET 0 -18.609 0
            CHANNELS 3 Zrotation Xrotation Yrotation
            JOINT LeftToeBase
            {
              OFFSET 0 -6.26232 12.9547
              CHANNELS 3 Zrotation Xrotation Yrotation
              End Site
              {
                OFFSET 0 0 5.96686
              }
            }
          }
        }
      }
    }
  }
  JOINT RightUpLeg
  {
    OFFSET -8.91 -6.27 -2.145
    CHANNELS 3 Zrotation Xrotation Yrotation
    JOINT RightUpLegRoll
    {
      OFFSET 0 -22.7323 0
      CHANNELS 3 Zrotation Xrotation Yrotation
      JOINT RightLeg
      {
        OFFSET 0 -22.1464 0
        CHANNELS 3 Zrotation Xrotation Yrotation
        JOINT RightLegRoll
        {
          OFFSET 0 -22.0919 0
          CHANNELS 3 Zrotation Xrotation Yrotation
          JOINT RightFoot
          {
            OFFSET 0 -18.609 0
            CHANNELS 3 Zrotation Xrotation Yrotation
            JOINT RightToeBase
            {
              OFFSET 0 -6.26232 12.9547
              CHANNELS 3 Zrotation Xrotation Yrotation
              End Site
              {
                OFFSET 0 0.000942417 5.96686
              }
            }
          }
        }
      }
    }
  }
  JOINT Spine
  {
    OFFSET 0 7.43174 -2.06162
    CHANNELS 3 Zrotation Xrotation Yrotation
    JOINT Spine1
    {
      OFFSET -1.68772e-005 12.1899 -1.41951
      CHANNELS 3 Zrotation Xrotation Yrotation
      JOINT Spine2
      {
        OFFSET 0 11.8846 -1.0903
        CHANNELS 3 Zrotation Xrotation Yrotation
        JOINT Spine3
        {
          OFFSET 1.84329e-005 10.5137 1.04001
          CHANNELS 3 Zrotation Xrotation Yrotation
          JOINT LeftShoulder
          {
            OFFSET 7 4.56855 2.0674
            CHANNELS 3 Zrotation Xrotation Yrotation
            JOINT LeftArm
            {
              OFFSET 10.7073 0 0
              CHANNELS 3 Zrotation Xrotation Yrotation
              JOINT LeftArmRoll
              {
                OFFSET 15.2612 0 0
                CHANNELS 3 Zrotation Xrotation Yrotation
                JOINT LeftForeArm
                {
                  OFFSET 12.0443 0 0
                  CHANNELS 3 Zrotation Xrotation Yrotation
                  JOINT LeftForeArmRoll
                  {
                    OFFSET 16.3277 0 0
                    CHANNELS 3 Zrotation Xrotation Yrotation
                    JOINT LeftHand
                    {
                      OFFSET 10.3694 0 0
                      CHANNELS 3 Zrotation Xrotation Yrotation
                      JOINT LeftHandThumb1
                      {
                        OFFSET 4.34876 -0.798502 4.28243
                        CHANNELS 3 Zrotation Xrotation Yrotation
                        JOINT LeftHandThumb2
                        {
                          OFFSET 2.51259 -0.536099 0.707454
                          CHANNELS 3 Zrotation Xrotation Yrotation
                          JOINT LeftHandThumb3
                          {
                            OFFSET 2.54314 0 0
                            CHANNELS 3 Zrotation Xrotation Yrotation
                            JOINT LeftHandThumb4
                            {
                              OFFSET 2.66675 0 0
                              CHANNELS 3 Zrotation Xrotation Yrotation
                              End Site
                              {
                                OFFSET 1 0 0
                              }
                            }
                          }
                        }
                      }
                      JOINT LeftHandIndex1
                      {
                        OFFSET 8.82198 0.199729 3.47167
                        CHANNELS 3 Zrotation Xrotation Yrotation
                        JOINT LeftHandIndex2
                        {
                          OFFSET 4.22532 0 -0.00026266
                          CHANNELS 3 Zrotation Xrotation Yrotation
                          JOINT LeftHandIndex3
                          {
                            OFFSET 2.65394 0 -0.000165163
                            CHANNELS 3 Zrotation Xrotation Yrotation
                            JOINT LeftHandIndex4
                            {
                              OFFSET 1.95822 0 -0.000122167
                              CHANNELS 3 Zrotation Xrotation Yrotation
                              End Site
                              {
                                OFFSET 1 0 0
                              }
                            }
                          }
                        }
                      }
                      JOINT LeftHandMiddle1
                      {
                        OFFSET 8.80988 0.50089 1.30468
                        CHANNELS 3 Zrotation Xrotation Yrotation
                        JOINT LeftHandMiddle2
                        {
                          OFFSET 4.86325 0 0
                          CHANNELS 3 Zrotation Xrotation Yrotation
                          JOINT LeftHandMiddle3
                          {
                            OFFSET 2.76524 0 0
                            CHANNELS 3 Zrotation Xrotation Yrotation
                            JOINT LeftHandMiddle4
                            {
                              OFFSET 2.00563 0 0
                              CHANNELS 3 Zrotation Xrotation Yrotation
                              End Site
                              {
                                OFFSET 1 0 0
                              }
                            }
                          }
                        }
                      }
                      JOINT LeftHandRing1
                      {
                        OFFSET 8.89376 0.37992 -0.793159
                        CHANNELS 3 Zrotation Xrotation Yrotation
                        JOINT LeftHandRing2
                        {
                          OFFSET 4.53776 0 -0.000282138
                          CHANNELS 3 Zrotation Xrotation Yrotation
                          JOINT LeftHandRing3
                          {
                            OFFSET 2.30453 0 -0.000143448
                            CHANNELS 3 Zrotation Xrotation Yrotation
                            JOINT LeftHandRing4
                            {
                              OFFSET 1.92335 0 -0.00012044
                              CHANNELS 3 Zrotation Xrotation Yrotation
                              End Site
                              {
                                OFFSET 1 0 0
                              }
                            }
                          }
                        }
                      }
                      JOINT LeftHandPinky1
                      {
                        OFFSET 8.88227 -0.313027 -2.49036
                        CHANNELS 3 Zrotation Xrotation Yrotation
                        JOINT LeftHandPinky2
                        {
                          OFFSET 3.0441 0 0
                          CHANNELS 3 Zrotation Xrotation Yrotation
                          JOINT LeftHandPinky3
                          {
                            OFFSET 1.9745 0 0
                            CHANNELS 3 Zrotation Xrotation Yrotation
                            JOINT LeftHandPinky4
                            {
                              OFFSET 1.66661 0 0
                              CHANNELS 3 Zrotation Xrotation Yrotation
                              End Site
                              {
                                OFFSET 1 0 0
                              }
                            }
                          }
                        }
                      }
                    }
                  }
                }
              }
            }
          }
          JOINT RightShoulder
          {
            OFFSET -7 4.56855 2.0673
            CHANNELS 3 Zrotation Xrotation Yrotation
            JOINT RightArm
            {
              OFFSET -10.7073 0 0
              CHANNELS 3 Zrotation Xrotation Yrotation
              JOINT RightArmRoll
              {
                OFFSET -15.2612 0 0
                CHANNELS 3 Zrotation Xrotation Yrotation
                JOINT RightForeArm
                {
                  OFFSET -12.0444 0 0
                  CHANNELS 3 Zrotation Xrotation Yrotation
                  JOINT RightForeArmRoll
                  {
                    OFFSET -16.3276 0 0
                    CHANNELS 3 Zrotation Xrotation Yrotation
                    JOINT RightHand
                    {
                      OFFSET -10.3694 0 0
                      CHANNELS 3 Zrotation Xrotation Yrotation
                      JOINT RightHandThumb1
                      {
                        OFFSET -4.34838 -0.798501 4.28282
                        CHANNELS 3 Zrotation Xrotation Yrotation
                        JOINT RightHandThumb2
                        {
                          OFFSET -2.51253 -0.536099 0.707679
                          CHANNELS 3 Zrotation Xrotation Yrotation
                          JOINT RightHandThumb3
                          {
                            OFFSET -2.54159 0 0.0888232
                            CHANNELS 3 Zrotation Xrotation Yrotation
                            JOINT RightHandThumb4
                            {
                              OFFSET -2.66512 0 0.0931403
                              CHANNELS 3 Zrotation Xrotation Yrotation
                              End Site
                              {
                                OFFSET 1 0 0
                              }
                            }
                          }
                        }
                      }
                      JOINT RightHandIndex1
                      {
                        OFFSET -8.82167 0.199732 3.47246
                        CHANNELS 3 Zrotation Xrotation Yrotation
                        JOINT RightHandIndex2
                        {
                          OFFSET -4.22532 0 0.000114599
                          CHANNELS 3 Zrotation Xrotation Yrotation
                          JOINT RightHandIndex3
                          {
                            OFFSET -2.65394 0 7.19639e-005
                            CHANNELS 3 Zrotation Xrotation Yrotation
                            JOINT RightHandIndex4
                            {
                              OFFSET -1.95822 0 5.30975e-005
                              CHANNELS 3 Zrotation Xrotation Yrotation
                              End Site
                              {
                                OFFSET 1 0 0
                              }
                            }
                          }
                        }
                      }
                      JOINT RightHandMiddle1
                      {
                        OFFSET -8.80976 0.500893 1.30547
                        CHANNELS 3 Zrotation Xrotation Yrotation
                        JOINT RightHandMiddle2
                        {
                          OFFSET -4.86325 0 0.000131881
                          CHANNELS 3 Zrotation Xrotation Yrotation
                          JOINT RightHandMiddle3
                          {
                            OFFSET -2.76524 0 7.49839e-005
                            CHANNELS 3 Zrotation Xrotation Yrotation
                            JOINT RightHandMiddle4
                            {
                              OFFSET -2.00563 0 5.4389e-005
                              CHANNELS 3 Zrotation Xrotation Yrotation
                              End Site
                              {
                                OFFSET 1 0 0
                              }
                            }
                          }
                        }
                      }
                      JOINT RightHandRing1
                      {
                        OFFSET -8.89383 0.379922 -0.792364
                        CHANNELS 3 Zrotation Xrotation Yrotation
                        JOINT RightHandRing2
                        {
                          OFFSET -4.53776 0 0.000123052
                          CHANNELS 3 Zrotation Xrotation Yrotation
                          JOINT RightHandRing3
                          {
                            OFFSET -2.30453 0 6.2493e-005
                            CHANNELS 3 Zrotation Xrotation Yrotation
                            JOINT RightHandRing4
                            {
                              OFFSET -1.92335 0 5.2155e-005
                              CHANNELS 3 Zrotation Xrotation Yrotation
                              End Site
                              {
                                OFFSET 1 0 0
                              }
                            }
                          }
                        }
                      }
                      JOINT RightHandPinky1
                      {
                        OFFSET -8.8825 -0.313025 -2.48956
                        CHANNELS 3 Zrotation Xrotation Yrotation
                        JOINT RightHandPinky2
                        {
                          OFFSET -3.0478 0 8.26486e-005
                          CHANNELS 3 Zrotation Xrotation Yrotation
                          JOINT RightHandPinky3
                          {
                            OFFSET -1.9769 0 5.36132e-005
                            CHANNELS 3 Zrotation Xrotation Yrotation
                            JOINT RightHandPinky4
                            {
                              OFFSET -1.66864 0 4.52455e-005
                              CHANNELS 3 Zrotation Xrotation Yrotation
                              End Site
                              {
                                OFFSET 1 0 0
                              }
                            }
                          }
                        }
                      }
                    }
                  }
                }
              }
            }
          }
          JOINT Neck
          {
            OFFSET 0 11.5156 1.94702
            CHANNELS 3 Zrotation Xrotation Yrotation
            JOINT Head
            {
              OFFSET -1.26215e-005 11.0733 1.65432
              CHANNELS 3 Zrotation Xrotation Yrotation
              End Site
              {
                OFFSET 0 17.7047 0
              }
            }
          }
        }
      }
    }
  }
}
MOTION
Frames:	5
Frame Time:	0.0416667
-2.65455 51.7213 -3.26418 8.30518 -48.0158 3.31003 -0.495341 -45.2616 -0.495817 6.27438e-022 -2.09819e-018 0.0342672 -180 85.1597 177.394 1.43687e-017 3.17192e-016 -5.1874 2.20158 1.34193 -0.0257877 -2.48842 -0.310476 -0.0134927 -37.7264 -77.573 -59.5732 7.05327e-016 2.10984e-015 -36.9699 -180 79.349 -176.319 2.02692e-017 -3.76574e-016 6.16199 -1.65662 13.8028 0.19644 0.298744 -4.15469 0.0216441 0.28878 4.60241 1.39985 -0.827159 7.73222 2.14494 -0.839389 7.73836 2.11783 -0.847107 7.7453 2.0888 -10.0165 0 2.78121 -51.0201 -8.17811 -14.9023 -0 5.40654 0 14.951 -4.75172 -107.235 -0 23.4379 0 -3.35119 0.245526 -8.37824 0.000195472 8.40631e-005 0.000356315 -9.8301 -0.341589 1.97063 0.000462395 0 0 -0 0 0 -0.000321162 -1.12152e-005 -6.67575e-006 -0.000633089 0 0 -1.20577e-006 0 0 -0 0 0 5.81416e-005 2.03035e-006 1.99643 -0.000214957 0 0 1.37716e-007 0 0 -0 0 0 -9.61885e-006 -3.35898e-007 1.99643 -2.17512e-005 0 0 -2.48382e-007 0 0 -0 0 0 0.00080418 2.80826e-005 2 -6.40967e-005 0 0 -3.95262e-005 0 0 -0 0 0 11.5677 9.68246e-016 8.47551 55.1402 -9.07978 -7.47438 8.38031e-016 6.81101 -4.9869e-017 -7.60427 -1.39036 100.301 -7.07648e-006 8.13907 -2.73634e-006 -6.4093 -1.31729 23.2058 0.000319069 -2.86046e-005 0.000130125 10.4896 -0.364257 -1.96656 0.00019947 0 -0 0 0 -0 4.88071e-006 -1.70438e-007 4.76837e-007 0.000632018 0 -0 1.68126e-006 0 -0 0 0 -0 -6.47449e-005 2.26094e-006 2.3842e-007 0.000206983 0 -0 1.44978e-005 0 -0 0 0 -0 3.86015e-006 -1.34799e-007 4.37326e-015 3.13304e-006 0 -0 -1.99814e-006 0 -0 0 0 -0 0.00119085 -4.15854e-005 4.77269e-007 9.31088e-005 0 -0 2.97724e-005 0 -0 0 0 -0 -25.9692 2.15583 9.21768 5.1542 -1.77873 0.264275 
-2.73078 51.7272 -3.25747 8.07152 -48.0705 3.08207 -0.104392 -45.1986 -0.246494 1.65825e-021 3.26654e-018 -0.0533484 180 85.1663 177.378 1.44948e-017 3.18579e-016 -5.21014 1.70335 1.46012 -0.0217729 -2.01349 -0.319439 -0.0112439 -36.5499 -77.5131 -58.5174 7.08625e-016 2.11421e-015 -37.0594 -180 79.4667 -176.398 1.95105e-017 -3.69478e-016 6.04544 -1.66973 13.6096 0.19515 -0.0552031 -3.84724 -0.00364716 0.235874 4.67657 1.42506 -0.939151 7.85266 2.18451 -0.951034 7.85895 2.15637 -0.958181 7.86611 2.12633 -11.1615 0 2.6304 -51.4623 -8.64098 -13.8588 -0 4.72967 0 14.121 -5.13917 -109.599 -0 22.443 0 -1.82581 0.149417 -9.34456 0.000195472 8.40631e-005 0.000356315 -9.8301 -0.341589 1.97063 0.000462395 0 0 -0 0 0 -0.000321162 -1.12152e-005 -6.67575e-006 -0.000633089 0 0 -1.20577e-006 0 0 -0 0 0 5.81416e-005 2.03035e-006 1.99643 -0.000214957 0 0 1.37716e-007 0 0 -0 0 0 -9.61885e-006 -3.35898e-007 1.99643 -2.17512e-005 0 0 -2.48382e-007 0 0 -0 0 0 0.00080418 2.80826e-005 2 -6.40967e-005 0 0 -3.95262e-005 0 0 -0 0 0 11.56 9.47559e-016 8.32538 55.1334 -8.19885 -7.3086 1.00382e-015 8.14182 -7.14452e-017 -7.66023 -1.60117 101.736 -7.06781e-006 8.3187 -2.73758e-006 -6.90375 -1.41087 23.0738 0.000319069 -2.86046e-005 0.000130125 10.4896 -0.364257 -1.96656 0.00019947 0 -0 0 0 -0 4.88071e-006 -1.70438e-007 4.76837e-007 0.000632018 0 -0 1.68126e-006 0 -0 0 0 -0 -6.47449e-005 2.26094e-006 2.3842e-007 0.000206983 0 -0 1.44978e-005 0 -0 0 0 -0 3.86015e-006 -1.34799e-007 4.37326e-015 3.13304e-006 0 -0 -1.99814e-006 0 -0 0 0 -0 0.00119085 -4.15854e-005 4.77269e-007 9.31088e-005 0 -0 2.97724e-005 0 -0 0 0 -0 -24.7757 0.861124 8.58129 5.67078 -0.931521 0.0727218 
-2.74954 51.7141 -3.20661 7.97321 -48.0004 3.07431 -0.0255813 -45.299 -0.20958 4.45006e-021 5.54709e-018 -0.0905938 -180 85.0679 177.337 1.48623e-017 3.22588e-016 -5.27588 1.99291 1.27569 -0.0219274 -2.25827 -0.290035 -0.0113934 -36.4132 -77.5257 -58.4481 7.11734e-016 2.11833e-015 -37.1436 -180 79.5042 -176.438 1.91468e-017 -3.66026e-016 5.98875 -1.83822 13.6463 0.21591 -0.215494 -3.81013 -0.0143635 0.155092 4.71549 1.43532 -1.0921 7.91634 2.19993 -1.10371 7.92262 2.17098 -1.11044 7.92985 2.14016 -11.4601 0 2.59434 -51.9755 -8.74223 -13.261 -0 4.49613 0 13.5139 -5.31674 -111.084 -0 21.6854 0 -0.714182 0.0621055 -9.90339 0.000195472 8.40631e-005 0.000356315 -9.8301 -0.341589 1.97063 0.000462395 0 0 -0 0 0 -0.000321162 -1.12152e-005 -6.67575e-006 -0.000633089 0 0 -1.20577e-006 0 0 -0 0 0 5.81416e-005 2.03035e-006 1.99643 -0.000214957 0 0 1.37716e-007 0 0 -0 0 0 -9.61885e-006 -3.35898e-007 1.99643 -2.17512e-005 0 0 -2.48382e-007 0 0 -0 0 0 0.00080418 2.80826e-005 2 -6.40967e-005 0 0 -3.95262e-005 0 0 -0 0 0 11.7058 9.58424e-016 8.42938 55.0148 -7.25319 -7.21108 1.1899e-015 9.62502 -1.00181e-016 -7.71469 -1.74169 102.646 -7.06015e-006 8.47727 -2.7387e-006 -7.54837 -1.5336 22.9399 0.000319069 -2.86046e-005 0.000130125 10.4896 -0.364257 -1.96656 0.00019947 0 -0 0 0 -0 4.88071e-006 -1.70438e-007 4.76837e-007 0.000632018 0 -0 1.68126e-006 0 -0 0 0 -0 -6.47449e-005 2.26094e-006 2.3842e-007 0.000206983 0 -0 1.44978e-005 0 -0 0 0 -0 3.86015e-006 -1.34799e-007 4.37326e-015 3.13304e-006 0 -0 -1.99814e-006 0 -0 0 0 -0 0.00119085 -4.15854e-005 4.77269e-007 9.31088e-005 0 -0 2.97724e-005 0 -0 0 0 -0 -23.2795 0.245684 7.89258 5.9972 -0.415179 -0.0967439 
-2.74455 51.6943 -3.13278 7.93082 -47.9017 3.1005 0.0419658 -45.4404 -0.14985 3.50702e-021 4.91038e-018 -0.0801953 -180 84.9346 177.302 1.51738e-017 3.25938e-016 -5.33084 2.22907 1.14101 -0.0223098 -2.39913 -0.277093 -0.0116439 -36.2584 -77.6022 -58.3647 7.14496e-016 2.12197e-015 -37.2182 -180 79.5619 -176.45 1.90889e-017 -3.65476e-016 5.97972 -2.17181 13.9859 0.262408 -0.0948985 -4.60747 -0.0075189 0.106703 4.70245 1.46246 -1.16767 7.89739 2.2549 -1.17993 7.90349 2.22667 -1.18741 7.91061 2.19649 -11.3128 0 2.29453 -52.2942 -8.28197 -13.2511 -0 5.07581 0 13.1963 -5.28873 -111.46 -0 21.2325 0 0.399591 -0.0350505 -9.97041 0.000195472 8.40631e-005 0.000356315 -9.8301 -0.341589 1.97063 0.000462395 0 0 -0 0 0 -0.000321162 -1.12152e-005 -6.67575e-006 -0.000633089 0 0 -1.20577e-006 0 0 -0 0 0 5.81416e-005 2.03035e-006 1.99643 -0.000214957 0 0 1.37716e-007 0 0 -0 0 0 -9.61885e-006 -3.35898e-007 1.99643 -2.17512e-005 0 0 -2.48382e-007 0 0 -0 0 0 0.00080418 2.80826e-005 2 -6.40967e-005 0 0 -3.95262e-005 0 0 -0 0 0 11.9206 9.95765e-016 8.73598 54.6314 -6.2487 -7.30192 1.40593e-015 11.3306 -1.39503e-016 -7.66269 -1.80166 103.153 -7.06089e-006 8.46215 -2.73859e-006 -8.14906 -1.65512 22.9224 0.000319069 -2.86046e-005 0.000130125 10.4896 -0.364257 -1.96656 0.00019947 0 -0 0 0 -0 4.88071e-006 -1.70438e-007 4.76837e-007 0.000632018 0 -0 1.68126e-006 0 -0 0 0 -0 -6.47449e-005 2.26094e-006 2.3842e-007 0.000206983 0 -0 1.44978e-005 0 -0 0 0 -0 3.86015e-006 -1.34799e-007 4.37326e-015 3.13304e-006 0 -0 -1.99814e-006 0 -0 0 0 -0 0.00119085 -4.15854e-005 4.77269e-007 9.31088e-005 0 -0 2.97724e-005 0 -0 0 0 -0 -22.7761 1.33592 7.44711 6.93479 -1.05914 -0.666084 
-2.75779 51.6853 -3.10818 7.98197 -48.0303 3.17631 0.251144 -45.3096 0.0531561 3.06555e-022 1.46661e-018 -0.0239523 180 84.9442 177.278 1.53216e-017 3.27519e-016 -5.35677 1.65931 1.41024 -0.0204244 -1.68974 -0.316326 -0.00933162 -35.7238 -77.4554 -57.8614 7.1569e-016 2.12354e-015 -37.2504 -180 79.5963 -176.472 1.88794e-017 -3.6347e-016 5.94679 -2.34244 13.9963 0.283493 -0.338886 -4.54288 -0.0268418 0.0845792 4.72032 1.4914 -1.19458 7.92687 2.31131 -1.20728 7.9329 2.2836 -1.21524 7.93998 2.25389 -11.2609 0 1.98356 -51.8441 -7.3952 -13.7086 -0 6.57939 0 12.9879 -5.10135 -111.082 -0 20.8229 0 1.72333 -0.145505 -9.65165 0.000195472 8.40631e-005 0.000356315 -9.8301 -0.341589 1.97063 0.000462395 0 0 -0 0 0 -0.000321162 -1.12152e-005 -6.67575e-006 -0.000633089 0 0 -1.20577e-006 0 0 -0 0 0 5.81416e-005 2.03035e-006 1.99643 -0.000214957 0 0 1.37716e-007 0 0 -0 0 0 -9.61885e-006 -3.35898e-007 1.99643 -2.17512e-005 0 0 -2.48382e-007 0 0 -0 0 0 0.00080418 2.80826e-005 2 -6.40967e-005 0 0 -3.95262e-005 0 0 -0 0 0 12.2187 1.0261e-015 9.00745 53.8454 -5.29412 -7.20285 1.6207e-015 13.0064 -1.84747e-016 -7.42321 -1.8166 103.675 -7.07353e-006 8.20038 -2.73676e-006 -7.69051 -1.61071 23.6252 0.000319069 -2.86046e-005 0.000130125 10.4896 -0.364257 -1.96656 0.00019947 0 -0 0 0 -0 4.88071e-006 -1.70438e-007 4.76837e-007 0.000632018 0 -0 1.68126e-006 0 -0 0 0 -0 -6.47449e-005 2.26094e-006 2.3842e-007 0.000206983 0 -0 1.44978e-005 0 -0 0 0 -0 3.86015e-006 -1.34799e-007 4.37326e-015 3.13304e-006 0 -0 -1.99814e-006 0 -0 0 0 -0 0.00119085 -4.15854e-005 4.77269e-007 9.31088e-005 0 -0 2.97724e-005 0 -0 0 0 -0 -21.8639 2.40854 6.99343 7.14223 -1.45719 -1.07177 
